HIERARCHY
ROOT root
{
	OFFSET 0.000000 0.000000 0.000000
	CHANNELS 6 Xposition Yposition Zposition Zrotation Yrotation Xrotation
	JOINT lhip
	{
		OFFSET 0.058581 -0.082280 -0.017664
		CHANNELS 3 Zrotation Yrotation Xrotation
		JOINT lknee
		{
			OFFSET 0.043451 -0.386469 0.008037
			CHANNELS 3 Zrotation Yrotation Xrotation
			JOINT lankle
			{
				OFFSET -0.014790 -0.426874 -0.037428
				CHANNELS 3 Zrotation Yrotation Xrotation
				JOINT ltoe
				{
					OFFSET 0.041054 -0.060286 0.122042
					CHANNELS 3 Zrotation Yrotation Xrotation
					End Site
					{
						OFFSET 0.000000 0.000000 0.000000
					}
				}
			}
		}
	}
	JOINT rhip
	{
		OFFSET -0.060310 -0.090513 -0.013543
		CHANNELS 3 Zrotation Yrotation Xrotation
		JOINT rknee
		{
			OFFSET -0.043257 -0.383688 -0.004843
			CHANNELS 3 Zrotation Yrotation Xrotation
			JOINT rankle
			{
				OFFSET 0.019056 -0.420046 -0.034562
				CHANNELS 3 Zrotation Yrotation Xrotation
				JOINT rtoe
				{
					OFFSET -0.034840 -0.062106 0.130323
					CHANNELS 3 Zrotation Yrotation Xrotation
					End Site
					{
						OFFSET 0.000000 0.000000 0.000000
					}
				}
			}
		}
	}
	JOINT lowerback
	{
		OFFSET 0.004439 0.124404 -0.038385
		CHANNELS 3 Zrotation Yrotation Xrotation
		JOINT upperback
		{
			OFFSET 0.004488 0.137956 0.026820
			CHANNELS 3 Zrotation Yrotation Xrotation
			JOINT chest
			{
				OFFSET -0.002265 0.056032 0.002855
				CHANNELS 3 Zrotation Yrotation Xrotation
				JOINT lowerneck
				{
					OFFSET -0.013390 0.211636 -0.033468
					CHANNELS 3 Zrotation Yrotation Xrotation
					JOINT upperneck
					{
						OFFSET 0.010113 0.088937 0.050410
						CHANNELS 3 Zrotation Yrotation Xrotation
						End Site
						{
							OFFSET 0.000000 0.000000 0.000000
						}
					}
				}
				JOINT lclavicle
				{
					OFFSET 0.071702 0.114000 -0.018898
					CHANNELS 3 Zrotation Yrotation Xrotation
					JOINT lshoulder
					{
						OFFSET 0.122921 0.045205 -0.019046
						CHANNELS 3 Zrotation Yrotation Xrotation
						JOINT lelbow
						{
							OFFSET 0.255332 -0.015649 -0.022946
							CHANNELS 3 Zrotation Yrotation Xrotation
							JOINT lwrist
							{
								OFFSET 0.265709 0.012698 -0.007375
								CHANNELS 3 Zrotation Yrotation Xrotation
								End Site
								{
									OFFSET 0.000000 0.000000 0.000000
								}
							}
						}
					}
				}
				JOINT rclavicle
				{
					OFFSET -0.082954 0.112472 -0.023707
					CHANNELS 3 Zrotation Yrotation Xrotation
					JOINT rshoulder
					{
						OFFSET -0.113228 0.046853 -0.008472
						CHANNELS 3 Zrotation Yrotation Xrotation
						JOINT relbow
						{
							OFFSET -0.260127 -0.014369 -0.031269
							CHANNELS 3 Zrotation Yrotation Xrotation
							JOINT rwrist
							{
								OFFSET -0.269108 0.006794 -0.006027
								CHANNELS 3 Zrotation Yrotation Xrotation
								End Site
								{
									OFFSET 0.000000 0.000000 0.000000
								}
							}
						}
					}
				}
			}
		}
	}
}
MOTION
Frames: 7
Frame Time: 0.033333
0.998587 0.406115 0.997218 -84.975961 -4.413997 90.494535 5.901613 -9.604717 -11.360833 -9.092055 -14.336631 54.510858 1.459774 15.396788 -39.423153 0.000000 -0.000000 0.000000 -5.041303 -2.904422 -11.372585 1.440911 1.594610 17.410465 3.875919 -8.905306 -12.306425 0.000000 -0.000000 0.000000 -7.064066 3.334540 13.493526 1.410879 -5.953250 3.641652 -0.268031 -3.289280 7.726824 5.980222 3.711663 10.018858 4.827184 -2.234032 17.298177 -19.643164 4.783194 5.482731 -56.713137 -10.128015 4.469256 10.737409 -30.253786 5.868319 1.710814 -4.647093 -13.364258 21.352654 -7.444340 1.499173 65.279585 -2.493164 8.824231 -18.062331 26.741302 -3.381089 8.562770 0.583683 -15.269787 
0.991448 0.413660 0.997923 -85.549391 -4.976257 90.523581 6.053334 -8.726648 -10.174802 -9.193127 -14.891249 53.468672 1.160329 14.455616 -38.746689 0.000000 -0.000000 0.000000 -5.115319 -2.863095 -10.918125 1.562868 1.951109 17.317546 3.629602 -8.775002 -12.834347 0.000000 -0.000000 0.000000 -7.256274 2.999466 13.478468 1.222646 -6.093937 3.619099 -0.233101 -3.342371 7.327939 5.872512 3.778505 10.337506 4.943817 -1.914615 17.353531 -19.960622 5.175830 5.681452 -56.440567 -9.487294 3.880003 10.862070 -30.506727 5.544279 1.391521 -4.561132 -13.446575 21.598890 -7.366497 1.835473 65.219177 -2.641731 8.496981 -17.726191 26.591379 -2.905240 9.219085 0.604325 -14.240007 
0.987124 0.421095 0.998572 -85.052187 -5.368066 91.242234 6.666105 -8.821391 -11.240416 -9.709694 -15.063729 54.086176 1.093014 13.455553 -37.348075 0.000000 -0.000000 0.000000 -5.156906 -2.989393 -11.207163 1.828012 1.692646 16.984419 3.345750 -8.943826 -12.764705 0.000000 -0.000000 0.000000 -7.126619 2.612643 13.115612 1.360798 -6.499228 3.080541 -0.364901 -3.801726 7.449959 5.588930 4.241007 9.983764 4.631907 -1.555826 17.730558 -19.881756 5.338818 6.291175 -56.515712 -9.726839 3.642989 11.036279 -30.193138 5.286323 2.037341 -4.463596 -13.544604 21.762241 -7.669515 1.736678 65.400309 -2.503038 8.760287 -17.585246 26.146196 -2.775928 8.443107 0.507841 -14.117613 
0.982808 0.427409 0.999426 -84.539037 -5.871510 91.286514 6.946932 -9.599119 -12.172182 -10.587200 -14.635305 55.776663 1.559497 12.189212 -34.863310 0.000000 -0.000000 0.000000 -5.383418 -2.982937 -10.501516 2.041424 1.578902 16.163007 2.961939 -9.193210 -12.910079 0.000000 -0.000000 0.000000 -7.160812 2.442894 12.902504 1.473806 -6.929927 3.540756 -0.411367 -3.706417 7.327679 5.437938 4.466653 9.681380 4.371311 -1.654092 17.927193 -19.680106 5.205963 5.733139 -56.668926 -9.980383 4.151285 11.064095 -29.552104 5.604308 1.190771 -4.139989 -13.838124 21.842600 -7.686631 1.717092 65.785965 -2.229913 9.094526 -17.804130 25.784879 -2.844618 8.790433 0.401959 -14.678996 
0.978035 0.432990 1.000032 -84.133154 -6.163072 91.249770 7.009623 -10.162253 -13.651816 -10.920449 -13.947189 58.450290 1.797380 11.250727 -33.345120 0.000000 -0.000000 0.000000 -5.322776 -3.056453 -9.679234 1.990806 1.169296 15.260303 2.468166 -9.155259 -12.740562 0.000000 -0.000000 0.000000 -6.824893 2.622965 13.053717 1.555616 -7.092710 3.315263 -0.474071 -3.684830 7.223040 5.073607 4.305131 10.137568 4.636411 -1.602043 17.364428 -19.610047 4.877083 5.960327 -56.686361 -10.237129 4.334990 11.111454 -29.459077 5.813532 0.920911 -4.373098 -13.804976 21.841887 -7.654646 1.879205 65.832026 -2.283149 9.028705 -17.381701 25.783965 -2.448255 8.556761 0.803534 -15.421357 
0.976061 0.437927 1.000498 -84.174843 -6.299136 91.591404 7.113831 -11.009459 -16.358693 -11.168970 -11.894705 62.213900 2.474364 11.748035 -33.577239 0.000000 -0.000000 0.000000 -5.256925 -2.911718 -9.665355 2.129571 1.117845 14.707173 2.647854 -9.010255 -12.487953 0.000000 -0.000000 0.000000 -6.436939 2.901270 13.503183 1.718437 -6.861084 1.975784 -0.486928 -3.535008 7.525671 4.743713 3.801772 9.989523 4.688481 -1.557794 18.016718 -19.642083 4.749081 6.026367 -56.832709 -10.450263 4.558359 11.212461 -29.793807 5.618492 0.709345 -4.353339 -13.532281 21.667155 -7.467442 2.047823 65.700661 -2.137911 9.385799 -17.106019 25.871484 -1.799261 9.391997 0.886979 -15.613582 
0.972335 0.441213 1.000252 -84.652413 -6.440459 91.376924 6.493009 -11.376929 -18.690219 -9.878502 -9.290896 66.581497 3.674529 13.321907 -33.675958 0.000000 -0.000000 0.000000 -5.171781 -2.843308 -8.797892 2.100937 1.460091 13.952629 2.470704 -8.931672 -12.348133 0.000000 -0.000000 0.000000 -6.348439 3.787047 13.318472 1.961064 -6.672386 2.611930 -0.256935 -3.207119 7.335156 4.258333 3.220240 10.467373 4.796162 -1.257764 17.443694 -19.547514 4.167514 6.124634 -57.370126 -10.553917 4.693446 11.464174 -30.642224 5.198438 0.737610 -4.113058 -13.617419 21.451359 -6.731717 2.322514 65.384103 -1.831957 9.461328 -17.398879 26.546041 -1.780948 10.545578 0.338165 -15.309960 
